<svg xmlns="http://www.w3.org/2000/svg" id="Layer_2" width="92.969" height="29.875" data-name="Layer 2" viewBox="0 0 92.969 29.875">
    <defs>
        <style>
            .cls-1{fill:#ececec}
        </style>
    </defs>
    <g id="Layer_1" data-name="Layer 1">
        <path id="Path_1014" d="M96.99 19a5.138 5.138 0 0 0-4.318 2.635H92.6v-2.259h-3.32V34.4h4.1v-7.42c0-2.488 1.442-4.25 3.418-4.25a4.032 4.032 0 0 1 2.259.644v-4A5.711 5.711 0 0 0 96.99 19z" class="cls-1" data-name="Path 1014" transform="translate(-55.67 -11.847)"/>
        <path id="Path_1015" d="M130.311 19.376v1.687A6.908 6.908 0 0 0 125.346 19c-4.269 0-7.266 3.313-7.266 7.883s3.012 7.883 7.266 7.883a6.912 6.912 0 0 0 4.965-2.063v1.687h3.324V19.376zm-.542 7.736a3.858 3.858 0 1 1-7.7-.207c0-2.432 1.551-4.216 3.851-4.216a3.846 3.846 0 0 1 3.847 3.99z" class="cls-1" data-name="Path 1015" transform="translate(-73.628 -11.847)"/>
        <path id="Path_1016" d="M188.18 2.368v20.189h4.107V0z" class="cls-1" data-name="Path 1016" transform="translate(-117.339)"/>
        <path id="Path_1017" d="M168.24 2.368v20.189h4.1V0z" class="cls-1" data-name="Path 1017" transform="translate(-104.905)"/>
        <path id="Path_1018" d="M209.333 38.759h4.054l1.585-4.19 5.843-14.539h-4.292l-3.6 10.428-3.6-10.428h-4.293l6.035 14.851z" class="cls-1" data-name="Path 1018" transform="translate(-127.845 -12.49)"/>
        <path id="Path_1019" fill="#941b1f" d="M12.927 42.278L0 34.816V19.89l12.927 7.446z" data-name="Path 1019" transform="translate(0 -12.402)"/>
        <path id="Path_1020" fill="#d10714" d="M34.34 42.278l12.927-7.461V19.89L34.34 27.336z" data-name="Path 1020" transform="translate(-21.413 -12.402)"/>
        <path id="Path_1021" fill="#ff4500" d="M12.927 15.021l12.928-7.446L12.943.14 0 7.575z" data-name="Path 1021" transform="translate(0 -.087)"/>
        <path id="Path_1022" fill="#fff" d="M28.627 18.167l-8.659-5.007-8.628 4.981v9.965l4.3 2.481v-9.962l4.329-2.5 4.359 2.522z" data-name="Path 1022" transform="translate(-7.071 -8.206)"/>
        <path id="Path_1023" fill="#b3b3b3" d="M11.36 26.42v9.953l4.3 2.481V28.9z" data-name="Path 1023" transform="translate(-7.083 -16.474)"/>
    </g>
</svg>
